<svg id="Capa_1" enable-background="new 0 0 512 512" height="512" viewBox="0 0 512 512" width="512" xmlns="http://www.w3.org/2000/svg"><g><path d="m256 263c24.813 0 45-20.187 45-45s-20.187-45-45-45-45 20.187-45 45 20.187 45 45 45zm0-75c16.542 0 30 13.458 30 30s-13.458 30-30 30-30-13.458-30-30 13.458-30 30-30z"/><path d="m148.812 243.802c-3.65.219-7.254 1.301-10.422 3.13-11.308 6.529-15.196 21.04-8.667 32.348l10.07 17.441c6.529 11.308 21.04 15.196 32.347 8.668 3.168-1.829 5.908-4.408 7.922-7.46l10.781-16.328 14.458-8.347c8.12 7.466 17.708 13.005 28.201 16.292v16.684l-8.75 17.5c-1.636 3.271-2.5 6.933-2.5 10.59 0 13.058 10.623 23.681 23.68 23.681h20.14c13.057 0 23.68-10.623 23.68-23.68 0-3.657-.864-7.319-2.5-10.59l-8.75-17.5v-16.683c10.493-3.287 20.082-8.826 28.201-16.292l14.458 8.347 10.781 16.328c2.015 3.052 4.754 5.631 7.921 7.46 5.478 3.163 11.859 4.002 17.969 2.366 6.109-1.637 11.216-5.556 14.378-11.033l10.07-17.441c3.163-5.478 4.003-11.859 2.366-17.969s-5.556-11.216-11.033-14.378c-3.167-1.829-6.77-2.911-10.422-3.13l-19.53-1.172-14.438-8.336c1.18-5.336 1.777-10.793 1.777-16.298 0-5.504-.597-10.962-1.779-16.293l14.438-8.336 19.529-1.172c3.65-.219 7.254-1.301 10.422-3.13 11.308-6.529 15.196-21.04 8.667-32.348l-10.07-17.441c-3.162-5.478-8.269-9.396-14.378-11.033-6.111-1.638-12.492-.798-17.968 2.365-3.168 1.829-5.908 4.409-7.922 7.461l-10.78 16.327-14.458 8.347c-8.12-7.466-17.708-13.005-28.201-16.292v-16.684l8.75-17.5c1.636-3.271 2.5-6.933 2.5-10.59 0-13.058-10.623-23.681-23.68-23.681h-20.14c-13.057 0-23.68 10.623-23.68 23.68 0 3.657.864 7.319 2.5 10.59l8.75 17.5v16.683c-10.493 3.287-20.082 8.826-28.202 16.292l-14.458-8.347-10.781-16.328c-2.016-3.053-4.755-5.632-7.921-7.459-5.478-3.164-11.859-4.003-17.969-2.366s-11.217 5.556-14.379 11.033l-10.07 17.441c-3.163 5.478-4.003 11.859-2.366 17.969s5.556 11.216 11.033 14.378c3.167 1.828 6.77 2.911 10.422 3.13l19.53 1.172 14.438 8.336c-1.18 5.334-1.777 10.792-1.777 16.296 0 5.505.597 10.962 1.779 16.293l-14.438 8.336zm25.496 12.703 20.935-12.087c3.03-1.75 4.448-5.362 3.417-8.706-1.765-5.719-2.66-11.678-2.66-17.712s.895-11.993 2.659-17.712c1.032-3.344-.386-6.957-3.417-8.706l-20.934-12.086c-1.008-.582-2.138-.922-3.301-.991l-21.297-1.278c-1.339-.081-2.66-.478-3.821-1.148-2.008-1.159-3.444-3.031-4.044-5.271s-.292-4.579.867-6.587l10.07-17.441c1.159-2.008 3.031-3.444 5.271-4.044 2.24-.602 4.579-.292 6.588.868 1.16.67 2.164 1.615 2.903 2.734l11.756 17.805c.642.972 1.5 1.781 2.509 2.363l20.958 12.1c3.031 1.749 6.868 1.171 9.248-1.394 8.263-8.906 18.86-15.027 30.646-17.703 3.416-.775 5.839-3.812 5.839-7.314v-24.195c0-1.165-.271-2.313-.792-3.354l-9.542-19.083c-.6-1.199-.917-2.542-.917-3.883 0-4.786 3.894-8.68 8.68-8.68h20.14c4.786 0 8.68 3.894 8.68 8.681 0 1.34-.317 2.683-.917 3.882l-9.542 19.083c-.521 1.042-.792 2.189-.792 3.354v24.194c0 3.502 2.424 6.539 5.839 7.314 11.786 2.676 22.383 8.797 30.646 17.703 2.381 2.565 6.217 3.144 9.248 1.394l20.958-12.1c1.008-.582 1.867-1.391 2.509-2.363l11.757-17.806c.738-1.118 1.741-2.063 2.903-2.734 2.008-1.16 4.347-1.466 6.587-.867 2.239.6 4.111 2.037 5.271 4.044l10.07 17.441c2.393 4.145.968 9.464-3.176 11.857-1.162.67-2.483 1.067-3.821 1.148l-21.297 1.278c-1.163.069-2.292.409-3.301.991l-20.935 12.087c-3.03 1.75-4.448 5.362-3.417 8.706 1.766 5.72 2.661 11.679 2.661 17.713s-.895 11.993-2.659 17.712c-1.032 3.344.386 6.957 3.417 8.706l20.934 12.086c1.008.582 2.138.922 3.301.991l21.297 1.278c1.339.081 2.66.478 3.821 1.148 2.008 1.159 3.445 3.031 4.045 5.271s.292 4.579-.867 6.587l-10.07 17.441c-2.394 4.145-7.713 5.57-11.857 3.177-1.161-.67-2.166-1.616-2.904-2.735l-11.756-17.805c-.642-.972-1.5-1.781-2.509-2.363l-20.958-12.101c-3.029-1.749-6.868-1.171-9.248 1.394-8.263 8.906-18.86 15.027-30.646 17.704-3.416.776-5.839 3.812-5.839 7.314v24.195c0 1.165.271 2.313.792 3.354l9.542 19.083c.6 1.199.917 2.542.917 3.883 0 4.786-3.894 8.68-8.68 8.68h-20.14c-4.786 0-8.68-3.894-8.68-8.681 0-1.34.317-2.683.917-3.882l9.542-19.083c.521-1.042.792-2.189.792-3.354v-24.193c0-3.502-2.424-6.538-5.839-7.314-11.786-2.676-22.384-8.798-30.646-17.704-1.459-1.573-3.467-2.399-5.501-2.399-1.282 0-2.575.329-3.747 1.005l-20.958 12.1c-1.008.582-1.867 1.391-2.509 2.363l-11.757 17.806c-.738 1.118-1.742 2.063-2.903 2.734-4.147 2.393-9.464.967-11.857-3.177l-10.07-17.441c-2.393-4.145-.968-9.464 3.176-11.857 1.162-.67 2.483-1.067 3.821-1.148l21.297-1.278c1.158-.07 2.288-.41 3.297-.992z"/><path d="m478.279 60.093c-67.394-39.313-144.257-60.093-222.279-60.093s-154.885 20.78-222.279 60.093c-2.304 1.344-3.721 3.811-3.721 6.478v99.392c0 74.292 21.498 146.223 62.168 208.016 39.639 60.226 95.223 107.722 160.741 137.354.982.444 2.037.667 3.091.667s2.108-.222 3.091-.667c65.519-29.632 121.102-77.129 160.741-137.354 40.67-61.793 62.168-133.724 62.168-208.016v-99.392c0-2.667-1.417-5.134-3.721-6.478zm-11.279 105.87c0 141.55-82.704 270.814-211 330.288-128.296-59.474-211-188.738-211-330.288v-95.059c130.555-74.401 291.447-74.4 422 0z"/><path d="m79.153 86.668c-2.545 1.27-4.153 3.869-4.153 6.712v72.583c0 60.045 16.123 118.919 46.625 170.256 2.116 3.561 6.718 4.733 10.279 2.617s4.732-6.718 2.617-10.279c-29.126-49.02-44.521-105.244-44.521-162.594v-67.91c51.53-24.907 108.822-38.053 166-38.053s114.47 13.146 166 38.053v67.91c0 62.533-18.081 123.058-52.286 175.029-28.761 43.698-68.019 79.892-113.714 104.885-41.287-22.589-77.662-54.618-105.374-92.826-2.431-3.352-7.121-4.098-10.475-1.668-3.353 2.432-4.1 7.122-1.668 10.475 29.833 41.13 69.253 75.42 114.001 99.163 1.099.583 2.307.875 3.515.875s2.416-.292 3.515-.875c49.414-26.218 91.853-64.872 122.728-111.782 35.823-54.427 54.758-117.803 54.758-183.276v-72.583c0-2.844-1.608-5.443-4.153-6.712-54.664-27.259-115.816-41.668-176.847-41.668-61.03 0-122.183 14.409-176.847 41.668z"/></g></svg>